<?xml version="1.0" encoding="UTF-8"?>
<!DOCTYPE svg PUBLIC "-//W3C//DTD SVG 1.1//EN" "http://www.w3.org/Graphics/SVG/1.1/DTD/svg11.dtd">
<svg xmlns="http://www.w3.org/2000/svg" version="1.1" width="185px" height="138px" style="shape-rendering:geometricPrecision; text-rendering:geometricPrecision; image-rendering:optimizeQuality; fill-rule:evenodd; clip-rule:evenodd" xmlns:xlink="http://www.w3.org/1999/xlink">
<g><path style="opacity:0.962" fill="#7b1f4d" d="M 87.5,7.5 C 108.339,8.50752 120.006,19.3409 122.5,40C 122.326,45.8638 120.826,51.3638 118,56.5C 108.058,69.0483 100.724,83.0483 96,98.5C 92.3333,102.5 88.6667,102.5 85,98.5C 80.2758,83.0483 72.9424,69.0483 63,56.5C 54.7081,38.5 58.5415,23.6667 74.5,12C 78.7146,9.76318 83.048,8.26318 87.5,7.5 Z M 86.5,18.5 C 104.303,18.8016 112.47,27.8016 111,45.5C 103.92,61.0546 92.753,64.8879 77.5,57C 68.7099,48.3428 67.2099,38.5095 73,27.5C 76.8597,23.3353 81.3597,20.3353 86.5,18.5 Z"/></g>
<g><path style="opacity:0.888" fill="#7b1e4d" d="M 84.5,42.5 C 80.8848,40.9792 78.3848,38.3125 77,34.5C 74.9824,31.219 75.1491,28.0523 77.5,25C 78.1667,24.3333 78.8333,24.3333 79.5,25C 83,28.5 86.5,32 90,35.5C 92.0474,31.4436 94.8807,27.9436 98.5,25C 99.5,24.3333 100.5,24.3333 101.5,25C 103.174,26.5059 104.174,28.3393 104.5,30.5C 105.5,30.5 106.5,30.5 107.5,30.5C 106.097,36.4046 102.431,40.2379 96.5,42C 99,44.5 101.5,47 104,49.5C 105.261,55.0798 103.094,56.9132 97.5,55C 95.3333,52.1667 93.1667,49.3333 91,46.5C 88.1471,49.0518 85.6471,51.8851 83.5,55C 78.1715,57.0747 76.0048,55.2413 77,49.5C 79.3959,46.9334 81.8959,44.6 84.5,42.5 Z"/></g>
<g><path style="opacity:0.797" fill="#7a1e4d" d="M 32.5,107.5 C 33.3171,109.969 33.8171,112.635 34,115.5C 39.2241,113.849 42.3907,115.849 43.5,121.5C 41.3697,128.063 37.0363,130.063 30.5,127.5C 31.0614,121.276 30.3947,115.276 28.5,109.5C 29.9492,108.828 31.2825,108.161 32.5,107.5 Z M 35.5,116.5 C 39.4606,117.884 40.4606,120.551 38.5,124.5C 35.1866,126.254 33.52,125.254 33.5,121.5C 33.4365,119.486 34.1032,117.819 35.5,116.5 Z"/></g>
<g><path style="opacity:0.747" fill="#7b1e4e" d="M 61.5,107.5 C 62.3276,113.319 62.8276,119.319 63,125.5C 63.5,126 64,126.5 64.5,127C 62.1667,127.667 59.8333,127.667 57.5,127C 58,126.5 58.5,126 59,125.5C 59.6667,120.833 59.6667,116.167 59,111.5C 58.0754,110.953 57.2421,110.287 56.5,109.5C 58.2914,108.83 59.9581,108.163 61.5,107.5 Z"/></g>
<g><path style="opacity:0.786" fill="#7a1f4d" d="M 141.5,126.5 C 142.117,126.389 142.617,126.056 143,125.5C 143.167,123 143.333,120.5 143.5,118C 143.391,114.965 142.724,112.131 141.5,109.5C 142.991,108.756 144.491,108.09 146,107.5C 146.182,110.226 146.682,112.893 147.5,115.5C 150.083,114.062 152.417,114.396 154.5,116.5C 154.819,120.295 155.819,123.795 157.5,127C 154.833,127.667 152.167,127.667 149.5,127C 151.986,123.655 152.153,120.155 150,116.5C 146.638,118.541 145.638,121.541 147,125.5C 147.5,126 148,126.5 148.5,127C 145.961,127.796 143.628,127.629 141.5,126.5 Z"/></g>
<g><path style="opacity:0.791" fill="#7b1e4e" d="M 6.5,109.5 C 16.4794,107.663 21.3127,111.663 21,121.5C 19.7296,125.77 16.8963,128.27 12.5,129C 14.5,129.5 16.5,130 18.5,130.5C 19.6721,130.081 20.6721,129.415 21.5,128.5C 22.7472,130.006 22.7472,131.506 21.5,133C 17.2562,134.013 13.4229,133.18 10,130.5C 8.63713,132.784 7.13713,132.951 5.5,131C 6.32791,130.085 7.32791,129.419 8.5,129C -0.0112994,123.261 -0.677966,116.761 6.5,109.5 Z M 8.5,111.5 C 15.7707,111.036 18.604,114.369 17,121.5C 13.7628,127.734 10.0961,128.067 6,122.5C 4.94645,118.345 5.77978,114.678 8.5,111.5 Z"/></g>
<g><path style="opacity:0.746" fill="#7b1f4e" d="M 48.5,114.5 C 53.451,113.629 56.1176,115.629 56.5,120.5C 53.4816,120.335 50.4816,120.502 47.5,121C 48.1667,122.333 48.8333,123.667 49.5,125C 57.916,123.664 58.416,124.831 51,128.5C 44.5607,126.665 42.8941,122.665 46,116.5C 46.9947,115.934 47.828,115.267 48.5,114.5 Z M 50.5,116.5 C 51.2891,116.783 51.9558,117.283 52.5,118C 51.1667,118.667 49.8333,118.667 48.5,118C 49.4158,117.722 50.0825,117.222 50.5,116.5 Z"/></g>
<g><path style="opacity:0.805" fill="#7b1e4f" d="M 67.5,114.5 C 70.3646,114.055 72.8646,114.722 75,116.5C 75.0368,120.089 75.8701,123.422 77.5,126.5C 75.7642,129.105 73.9308,129.105 72,126.5C 67.2676,129.463 65.2676,128.129 66,122.5C 68.087,121.206 70.2537,120.039 72.5,119C 70.6967,115.929 68.8634,116.096 67,119.5C 64.99,117.604 65.1567,115.937 67.5,114.5 Z M 71.5,122.5 C 71.5852,123.995 70.9185,124.995 69.5,125.5C 68.3606,123.604 69.0272,122.604 71.5,122.5 Z"/></g>
<g><path style="opacity:0.766" fill="#781e4c" d="M 161.5,114.5 C 166.56,113.668 169.227,115.668 169.5,120.5C 166.833,120.5 164.167,120.5 161.5,120.5C 161.286,122.144 161.62,123.644 162.5,125C 164.936,124.947 167.269,125.113 169.5,125.5C 163.772,129.986 159.772,128.652 157.5,121.5C 158.071,118.687 159.404,116.354 161.5,114.5 Z M 163.5,116.5 C 166.137,118.154 165.803,118.654 162.5,118C 163.056,117.617 163.389,117.117 163.5,116.5 Z"/></g>
<g><path style="opacity:0.817" fill="#7a1e4e" d="M 84.5,109.5 C 87.2469,109.187 89.9135,109.52 92.5,110.5C 91.4783,111.354 90.6449,112.354 90,113.5C 89.2401,117.225 89.4068,120.892 90.5,124.5C 94.0193,125.969 97.0193,125.302 99.5,122.5C 100.086,122.709 100.586,123.043 101,123.5C 102.532,121.438 104.532,120.104 107,119.5C 107.563,118.275 107.23,117.275 106,116.5C 105,117.5 104,118.5 103,119.5C 101.008,116.069 102.175,114.402 106.5,114.5C 107.772,114.57 108.938,114.903 110,115.5C 110.879,118.818 111.713,122.152 112.5,125.5C 113.086,125.709 113.586,126.043 114,126.5C 116.151,123.082 115.984,119.749 113.5,116.5C 114.438,115.447 115.605,114.78 117,114.5C 118.808,115.69 120.641,115.69 122.5,114.5C 123.554,114.68 124.554,115.013 125.5,115.5C 126.324,118.785 126.824,122.118 127,125.5C 127.5,126 128,126.5 128.5,127C 126.167,127.667 123.833,127.667 121.5,127C 123.986,123.655 124.153,120.155 122,116.5C 118.638,118.541 117.638,121.541 119,125.5C 119.5,126 120,126.5 120.5,127C 117.11,127.246 113.777,127.746 110.5,128.5C 108.674,126.219 106.674,126.219 104.5,128.5C 103.167,127.833 101.833,127.167 100.5,126.5C 95.2202,127.618 89.8869,127.784 84.5,127C 85,126.5 85.5,126 86,125.5C 86.9414,119.95 86.4414,114.616 84.5,109.5 Z M 106.5,121.5 C 107.867,123.093 107.534,124.426 105.5,125.5C 105.167,125.167 104.833,124.833 104.5,124.5C 105.193,123.482 105.859,122.482 106.5,121.5 Z"/></g>
<g><path style="opacity:0.852" fill="#791e4e" d="M 177.5,119.5 C 181.847,126.507 179.847,129.174 171.5,127.5C 171.238,126.022 171.571,124.689 172.5,123.5C 173.281,124.737 174.281,125.737 175.5,126.5C 175.833,126 176.167,125.5 176.5,125C 169.088,118.799 170.088,115.299 179.5,114.5C 179.923,116.781 179.256,118.448 177.5,119.5 Z M 177.5,119.5 C 176.005,119.585 175.005,118.919 174.5,117.5C 176.396,116.361 177.396,117.027 177.5,119.5 Z"/></g>
<g><path style="opacity:0.771" fill="#761c4e" d="M 141.5,126.5 C 139.634,127.014 137.8,127.68 136,128.5C 128.855,125.979 127.688,121.645 132.5,115.5C 135.915,113.847 138.915,114.347 141.5,117C 139.522,119.015 137.688,118.848 136,116.5C 133.397,118.949 132.897,121.782 134.5,125C 136.235,125.651 137.902,125.485 139.5,124.5C 140.522,124.855 141.189,125.522 141.5,126.5 Z"/></g>
</svg>
